<?xml version="1.0" encoding="UTF-8" standalone="no"?>
<svg width="66px" height="74px" viewBox="0 0 66 74" version="1.1" xmlns="http://www.w3.org/2000/svg" xmlns:xlink="http://www.w3.org/1999/xlink" xmlns:sketch="http://www.bohemiancoding.com/sketch/ns">
    <!-- Generator: Sketch Beta 3.5 (25218) - http://www.bohemiancoding.com/sketch -->
    <title>Page 1</title>
    <desc>Created with Sketch Beta.</desc>
    <defs>
        <path id="path-1" d="M0,0.683 L65.303,0.683 L65.303,74 L0,74 L0,0.683 Z"></path>
    </defs>
    <g id="Page-1" stroke="none" stroke-width="1" fill="none" fill-rule="evenodd" sketch:type="MSPage">
        <g sketch:type="MSLayerGroup">
            <mask id="mask-2" sketch:name="Clip 2" fill="white">
                <use xlink:href="#path-1"></use>
            </mask>
            <g id="Clip-2"></g>
            <path d="M10.6826,33.27 L8.1756,33.27 L8.1756,30.165 L10.7206,30.165 C11.6806,30.165 12.4286,30.626 12.4286,31.648 C12.4166,32.572 11.9176,33.27 10.6826,33.27 L10.6826,33.27 Z M13.7506,31.599 C13.7386,29.715 12.3666,28.967 10.7206,28.967 L5.8196,28.967 L5.8196,30.165 L6.8666,30.165 L6.8666,36.477 L5.8426,36.477 L5.8426,37.697 L9.2976,37.697 L9.2976,36.477 L8.1756,36.477 L8.1756,34.38 L9.6846,34.38 L11.5686,36.625 L11.5686,37.697 L14.1006,37.697 L14.1006,36.477 L13.0526,36.477 L11.1196,34.343 C12.7026,34.131 13.7506,33.32 13.7506,31.599 L13.7506,31.599 Z M53.8566,33.794 L56.2916,33.794 C57.1016,33.794 58.1496,34.218 58.1496,35.179 C58.1496,36.301 57.0496,36.5 56.2506,36.5 L53.8566,36.5 L53.8566,33.794 Z M53.8566,30.152 L56.2506,30.152 C57.2506,30.152 57.9256,30.489 57.9256,31.462 C57.9256,32.086 57.3136,32.609 56.2916,32.609 L53.8566,32.609 L53.8566,30.152 Z M51.5146,36.487 L51.5146,37.697 L56.2506,37.697 C57.9366,37.697 59.4836,37.262 59.4836,35.229 C59.4836,34.518 59.0096,33.469 57.9866,33.208 C58.8086,32.834 59.2096,32.198 59.2096,31.449 C59.2096,29.653 57.8996,28.967 56.2506,28.967 L51.5386,28.967 L51.5386,30.152 L52.5626,30.152 L52.5626,36.487 L51.5146,36.487 Z M65.3026,1.504 L64.4806,0.683 L32.6556,32.511 L0.8256,0.683 L-0.0004,1.504 L31.8316,33.332 L-0.0004,65.163 L0.8256,65.982 L32.6556,34.154 L64.4806,65.982 L65.3026,65.163 L33.4756,33.332 L65.3026,1.504 Z M29.0956,14.022 L28.0616,14.022 L28.0616,15.232 L31.3786,15.232 L31.3786,14.022 L30.3936,14.022 L30.3936,11.329 L34.8956,11.329 L34.8956,14.022 L33.9116,14.022 L33.9116,15.232 L37.2386,15.232 L37.2386,14.022 L36.2156,14.022 L36.2156,7.711 L37.2526,7.711 L37.2526,6.501 L33.9116,6.501 L33.9116,7.711 L34.8956,7.711 L34.8956,10.156 L30.3936,10.156 L30.3936,7.711 L31.3786,7.711 L31.3786,6.501 L28.0496,6.501 L28.0496,7.711 L29.0956,7.711 L29.0956,14.022 Z M40.7276,59.314 C40.0616,59.251 39.3806,59.238 38.7246,59.337 C37.6986,59.491 36.7846,59.992 35.8616,60.454 C33.7156,61.523 31.5046,61.725 29.2306,60.854 C28.6736,60.641 28.2616,60.277 28.0656,59.725 C27.8516,59.12 27.6186,58.503 27.5326,57.873 C27.3736,56.707 27.1016,55.653 25.9586,55.048 C25.8366,54.983 25.7626,54.822 25.6206,54.647 C25.9276,54.693 26.1476,54.738 26.3676,54.755 C26.7736,54.788 27.1416,54.679 27.3936,54.346 C27.4766,54.235 27.5116,54.044 27.4806,53.909 C27.4656,53.848 27.2376,53.832 27.1026,53.807 C27.0276,53.793 26.9446,53.805 26.8096,53.805 C26.9956,53.504 27.1526,53.256 27.3126,52.999 C26.9316,52.691 26.6226,53.15 26.2676,53.043 C26.2856,52.812 26.3056,52.576 26.3256,52.336 C26.2946,52.309 26.2626,52.283 26.2316,52.256 C25.9276,52.433 25.6266,52.613 25.3176,52.797 C25.2216,52.485 25.1386,52.211 25.0536,51.937 C25.0106,51.925 24.9686,51.912 24.9276,51.899 C24.5786,52.284 24.2296,52.669 23.9056,53.027 C23.8596,52.847 23.8106,52.662 23.7506,52.436 C23.2646,52.757 23.2746,53.2 23.2406,53.708 C23.1476,53.562 23.1176,53.477 23.0556,53.433 C22.9516,53.354 22.8276,53.301 22.7096,53.239 C22.6816,53.358 22.6486,53.477 22.6236,53.598 C22.5786,53.833 22.5836,54.088 22.4886,54.301 C22.2056,54.92 22.2216,55.105 22.6866,55.569 C22.5496,55.757 22.4136,55.94 22.2656,56.143 C22.5166,56.143 22.7136,56.129 22.9106,56.145 C23.2026,56.171 23.2766,56.339 23.1066,56.573 C23.0406,56.665 22.9536,56.739 22.8876,56.828 C22.4626,57.404 22.2926,58.363 23.2306,58.768 C23.2486,58.777 23.2566,58.807 23.2896,58.863 C23.1556,59.183 22.9916,59.517 22.8696,59.866 C22.2456,61.644 22.4236,63.318 23.5986,64.823 C24.2616,65.672 25.1776,66.219 26.1306,66.688 C26.5226,66.882 26.8566,67.066 26.8806,67.576 C26.8906,67.757 27.0096,67.959 27.1316,68.104 C27.5306,68.58 27.9356,69.048 28.3706,69.491 C28.5856,69.71 28.6826,69.903 28.5836,70.214 C28.3746,70.849 28.2046,71.495 28.0096,72.137 C27.7616,72.944 27.6546,73.007 26.8216,72.876 C26.2716,72.791 25.8766,73.072 25.9136,73.513 C26.0776,73.453 26.2456,73.393 26.4446,73.319 C26.3666,73.571 26.1256,73.771 26.4526,74 C26.4826,73.669 26.6886,73.643 26.9326,73.67 C27.0796,73.686 27.2516,73.723 27.3736,73.669 C27.9026,73.433 28.4346,73.271 29.0166,73.349 C29.1626,73.369 29.3066,73.415 29.4656,73.45 C29.6716,72.973 29.5546,72.817 28.9896,72.864 C28.8546,72.874 28.6716,72.869 28.5876,72.79 C28.3776,72.593 28.6546,71.863 28.9406,71.815 C29.3096,71.753 29.6696,71.683 29.9166,71.294 C29.7806,71.322 29.6876,71.351 29.5916,71.36 C29.1186,71.409 28.9056,71.165 29.0626,70.723 C29.1556,70.468 29.3106,70.24 29.4156,69.988 C29.4786,69.837 29.5636,69.647 29.5236,69.507 C29.3886,69.048 29.5266,68.638 29.6566,68.162 C30.2696,68.714 30.9876,68.935 31.7216,69.131 C31.8836,69.173 32.0876,69.324 32.1386,69.472 C32.3666,70.138 32.5516,70.818 32.7416,71.496 C32.8506,71.894 32.6846,72.157 32.3236,72.34 C31.9026,72.557 31.5776,72.876 31.3986,73.324 C31.3866,73.353 31.3976,73.391 31.3976,73.426 C31.5166,73.412 31.6216,73.399 31.6616,73.393 C31.8086,73.578 31.9236,73.72 32.0386,73.863 C32.0766,73.865 32.1146,73.865 32.1506,73.865 C32.0026,73.54 32.0996,73.393 32.3996,73.338 C32.5016,73.319 32.5946,73.196 32.6726,73.103 C32.7866,72.972 32.8816,72.824 32.9836,72.683 C32.9416,72.943 32.8316,73.162 32.7306,73.383 C32.5576,73.758 32.5876,73.855 32.8626,73.951 C32.9066,73.833 32.9176,73.667 32.9966,73.619 C33.5076,73.312 33.5736,72.854 33.4996,72.327 C33.4856,72.208 33.5206,72.08 33.5466,71.959 C33.6706,71.398 33.8286,71.299 34.4326,71.458 C34.3746,71.256 34.3776,71.012 34.2646,70.94 C34.1556,70.868 33.9326,70.961 33.7596,70.99 C33.7126,70.999 33.6696,71.054 33.6276,71.054 C33.5306,71.051 33.3956,71.062 33.3476,71.005 C33.2796,70.926 33.2186,70.759 33.2566,70.686 C33.3176,70.565 33.4586,70.478 33.5786,70.4 C33.8786,70.208 34.0396,69.964 33.9336,69.561 C33.7776,69.683 33.6486,69.794 33.5066,69.886 C33.1676,70.105 32.9396,69.995 32.8956,69.592 C32.8836,69.495 32.8806,69.392 32.8876,69.292 C32.9066,69.02 32.8196,68.815 32.5656,68.678 C32.2186,68.489 32.0816,68.162 32.0186,67.793 C31.9616,67.468 32.0116,67.244 32.4036,67.199 C32.6086,67.176 32.8046,67.08 33.0076,67.016 C33.0366,67.007 33.0726,67.004 33.1306,66.993 L33.0396,67.266 L33.3616,67.266 C33.3046,67.425 33.2576,67.557 33.1756,67.79 C33.6226,67.48 33.9896,67.223 34.3596,66.968 C34.3936,67.01 34.4296,67.053 34.4666,67.097 C34.1816,67.442 33.8956,67.786 33.6096,68.129 C33.6276,68.161 33.6446,68.192 33.6616,68.223 C34.1816,67.928 34.6996,67.635 35.2276,67.337 C35.1876,67.496 35.1456,67.673 35.0976,67.878 C35.1786,67.852 35.2276,67.841 35.2736,67.822 C35.9146,67.561 36.2556,67.015 36.5746,66.444 C36.6356,66.327 36.7576,66.177 36.8666,66.164 C37.4136,66.105 37.8156,65.817 38.1616,65.424 C38.3606,65.192 38.5456,64.947 38.7426,64.707 C38.7796,64.736 38.8196,64.766 38.8586,64.797 C38.4586,65.327 38.0606,65.857 37.6696,66.373 C38.3206,66.297 38.8506,65.909 39.4126,65.531 C39.1306,65.868 38.8506,66.204 38.5656,66.542 C39.0626,66.502 39.4006,66.242 39.6906,65.915 C40.2846,65.249 40.5286,64.437 40.6636,63.577 C40.6906,63.406 40.7866,63.242 40.8496,63.076 C40.8926,63.093 40.9376,63.109 40.9806,63.125 C41.4516,64.43 40.5986,65.321 39.9226,66.27 C39.9426,66.297 39.9626,66.325 39.9856,66.353 C40.4276,66.118 40.8726,65.883 41.3676,65.621 C40.9716,66.597 40.2136,67.158 39.4226,67.705 C39.6056,67.716 39.7776,67.716 39.9396,67.678 C41.0746,67.408 41.8956,66.763 42.3976,65.697 C43.2646,63.845 43.3126,62.035 42.1706,60.275 C41.8286,59.75 41.3446,59.37 40.7276,59.314 L40.7276,59.314 Z" id="Fill-1" fill="#FEFEFE" sketch:type="MSShapeGroup" mask="url(#mask-2)"></path>
        </g>
    </g>
</svg>